<svg width="1064" height="293" viewBox="0 0 1064 293" fill="none" xmlns="http://www.w3.org/2000/svg">
<path d="M314.637 78H345.237L386.837 138.4L428.037 78H458.437V218H420.837V177.6L421.237 144.6L395.437 182.2H377.637L351.637 144.4L352.237 177.6V218H314.637V78ZM530.731 220.2C520.464 220.2 511.331 217.8 503.331 213C495.331 208.2 489.131 201.6 484.731 193.2C480.331 184.8 478.131 175.4 478.131 165C478.131 154.2 480.398 144.667 484.931 136.4C489.464 128 495.731 121.467 503.731 116.8C511.731 112.133 520.731 109.8 530.731 109.8C536.998 109.8 542.931 110.867 548.531 113C554.131 115 559.131 117.867 563.531 121.6L564.931 112H594.731V218H564.931L563.331 208.6C554.131 216.333 543.264 220.2 530.731 220.2ZM513.531 165C513.531 171.8 515.664 177.4 519.931 181.8C524.331 186.067 529.864 188.2 536.531 188.2C543.198 188.2 548.664 186.067 552.931 181.8C557.331 177.4 559.531 171.8 559.531 165C559.531 158.2 557.331 152.667 552.931 148.4C548.664 144 543.198 141.8 536.531 141.8C529.864 141.8 524.331 144 519.931 148.4C515.664 152.667 513.531 158.2 513.531 165ZM684.087 220.2C673.554 220.2 664.02 217.4 655.487 211.8V251.4H620.087V112H649.887L651.087 121.4C655.62 117.667 660.687 114.8 666.287 112.8C671.887 110.8 677.82 109.8 684.087 109.8C694.087 109.8 703.02 112.2 710.887 117C718.887 121.667 725.087 128.2 729.487 136.6C734.02 145 736.287 154.467 736.287 165C736.287 175.267 734.087 184.6 729.687 193C725.42 201.4 719.287 208.067 711.287 213C703.42 217.8 694.354 220.2 684.087 220.2ZM655.087 165C655.087 171.8 657.22 177.4 661.487 181.8C665.887 186.067 671.42 188.2 678.087 188.2C684.754 188.2 690.22 186.067 694.487 181.8C698.887 177.4 701.087 171.8 701.087 165C701.087 158.2 698.887 152.667 694.487 148.4C690.22 144 684.754 141.8 678.087 141.8C671.42 141.8 665.887 144 661.487 148.4C657.22 152.667 655.087 158.2 655.087 165ZM819.048 220.2C808.515 220.2 798.981 217.4 790.448 211.8V251.4H755.048V112H784.848L786.048 121.4C790.581 117.667 795.648 114.8 801.248 112.8C806.848 110.8 812.781 109.8 819.048 109.8C829.048 109.8 837.981 112.2 845.848 117C853.848 121.667 860.048 128.2 864.448 136.6C868.981 145 871.248 154.467 871.248 165C871.248 175.267 869.048 184.6 864.648 193C860.381 201.4 854.248 208.067 846.248 213C838.381 217.8 829.315 220.2 819.048 220.2ZM790.048 165C790.048 171.8 792.181 177.4 796.448 181.8C800.848 186.067 806.381 188.2 813.048 188.2C819.715 188.2 825.181 186.067 829.448 181.8C833.848 177.4 836.048 171.8 836.048 165C836.048 158.2 833.848 152.667 829.448 148.4C825.181 144 819.715 141.8 813.048 141.8C806.381 141.8 800.848 144 796.448 148.4C792.181 152.667 790.048 158.2 790.048 165ZM890.009 112H925.409V218H890.009V112ZM887.409 84.4C887.409 78.9333 889.276 74.4 893.009 70.8C896.876 67.2 901.742 65.4 907.609 65.4C913.342 65.4 918.076 67.2 921.809 70.8C925.676 74.4 927.609 78.9333 927.609 84.4C927.609 89.8667 925.742 94.4 922.009 98C918.276 101.467 913.476 103.2 907.609 103.2C901.742 103.2 896.876 101.467 893.009 98C889.276 94.4 887.409 89.8667 887.409 84.4ZM1000.75 220.4C989.951 220.4 980.218 218.067 971.551 213.4C962.885 208.6 956.085 202 951.151 193.6C946.218 185.067 943.751 175.533 943.751 165C943.751 154.333 946.151 144.8 950.951 136.4C955.885 128 962.685 121.467 971.351 116.8C980.018 112 989.818 109.6 1000.75 109.6C1011.68 109.6 1021.48 111.933 1030.15 116.6C1038.82 121.267 1045.55 127.8 1050.35 136.2C1055.15 144.467 1057.55 153.8 1057.55 164.2C1057.55 167.267 1057.22 170.933 1056.55 175.2H978.751C980.218 180.133 982.818 183.933 986.551 186.6C990.418 189.133 995.218 190.4 1000.95 190.4C1004.42 190.4 1007.62 189.867 1010.55 188.8C1013.62 187.6 1016.15 186.067 1018.15 184.2H1054.55C1050.82 195.4 1044.08 204.267 1034.35 210.8C1024.75 217.2 1013.55 220.4 1000.75 220.4ZM1023.55 154.8C1022.08 150 1019.42 146.267 1015.55 143.6C1011.68 140.8 1006.88 139.4 1001.15 139.4C995.551 139.4 990.818 140.733 986.951 143.4C983.085 146.067 980.351 149.867 978.751 154.8H1023.55Z" fill="#373737"/>
<path d="M208.49 101.44C208.49 120.57 202.02 138.22 191.13 152.31L173.91 121.82C176.54 115.54 177.99 108.66 177.99 101.44C177.99 74.67 158.03 52.48 132.2 48.99C129.86 48.66 127.47 48.5 125.05 48.5C122.63 48.5 120.25 48.66 117.92 48.98C92.0903 52.47 72.1104 74.67 72.1104 101.44C72.1104 108.66 73.5603 115.55 76.2003 121.83L58.9704 152.32C48.0904 138.23 41.6104 120.58 41.6104 101.44C41.6104 55.43 79.0404 18 125.05 18C171.06 18 208.49 55.43 208.49 101.44Z" fill="#C75E5E"/>
<path d="M232.8 226.06L158.73 94.9501C143.93 68.75 106.19 68.75 91.38 94.9501L17.31 226.06L0 256.7H76.89C87.65 256.7 97.92 252.22 105.24 244.33L122.19 226.06L125.06 222.97L127.92 226.06L156.35 256.7H250.11L232.8 226.06ZM131.19 108.5L153.25 147.54L125.06 177.93L96.86 147.54L118.91 108.51C121.61 103.73 128.5 103.73 131.2 108.51L131.19 108.5ZM80.4 226.06H52.5L81.04 175.54L104.16 200.45L80.4 226.06ZM169.71 226.06L145.95 200.45L169.07 175.54L197.61 226.06H169.71Z" fill="#5E7BC7"/>
</svg>
